#!OML:ASF F:\VICON\USERDATA\INSTALL\Justin_Nancy\Justin_Nancy.ASF
:FULLY-SPECIFIED
:DEGREES
484
root 10.1667 17.5657 28.5243 -0.912428 35.7144 -0.740676
lowerback 6.80348 -1.15961 -0.0572589
upperback 0.757331 -1.39921 3.85676
thorax -2.93505 -0.666478 4.1571
lowerneck -18.0356 -2.81969 -9.30004
upperneck 23.4374 -1.73175 2.39478
head 10.6511 -1.30505 2.16951
rclavicle 2.27608e-014 7.95139e-016
rhumerus -36.7926 -18.1767 -73.0579
rradius 26.1584
rwrist 8.10571
rhand -12.9546 13.7668
rfingers 7.12502
rthumb 13.137 -15.7993
lclavicle 2.27608e-014 7.95139e-016
lhumerus -29.6189 12.8463 83.2074
lradius 28.3784
lwrist -11.242
lhand -16.5543 19.223
lfingers 7.12502
lthumb 9.66543 48.9812
rfemur -16.3115 3.82363 24.0687
rtibia 18.4666
rfoot 0.477888 -4.15004
rtoes 15.9535
lfemur -3.30931 -0.252325 -20.261
ltibia 52.9735
lfoot 14.1289 -4.88384
ltoes -6.4789
485
root 10.2347 17.5783 28.657 -1.31627 35.6847 -1.35069
lowerback 6.91619 -1.13974 0.418609
upperback 0.754386 -1.32819 3.95769
thorax -3.01498 -0.634215 3.99003
lowerneck -16.9784 -2.74781 -8.48488
upperneck 22.1929 -1.79383 1.62763
head 9.98615 -1.33103 1.74631
rclavicle 9.31306e-014 -7.15625e-015
rhumerus -36.3944 -17.5771 -73.3873
rradius 26.2351
rwrist 7.73498
rhand -12.6087 13.5128
rfingers 7.12502
rthumb 13.4703 -16.0316
lclavicle 9.31306e-014 -7.15625e-015
lhumerus -30.1279 12.3974 83.4021
lradius 28.4494
lwrist -10.7823
lhand -16.3599 18.8134
lfingers 7.12502
lthumb 9.85293 48.5628
rfemur -15.0509 3.83599 24.726
rtibia 17.3132
rfoot 0.577375 -3.64808
rtoes 13.607
lfemur -4.75712 -0.0377138 -19.4752
ltibia 55.3665
lfoot 15.2672 -5.464
ltoes -4.31436
486
root 10.3014 17.5865 28.7857 -1.65165 35.6681 -1.7079
lowerback 7.10136 -1.14202 0.643365
upperback 0.692288 -1.30452 3.98202
thorax -3.18909 -0.622668 3.89288
lowerneck -17.4697 -2.79342 -9.17871
upperneck 23.0487 -1.83615 2.5505
head 10.4054 -1.31696 2.18917
rclavicle 1.72943e-014 1.43125e-014
rhumerus -36.2793 -17.1753 -73.6167
rradius 26.1708
rwrist 7.96294
rhand -12.5534 13.64
rfingers 7.12502
rthumb 13.5237 -15.9008
lclavicle 1.72943e-014 1.43125e-014
lhumerus -30.7746 12.1596 83.3947
lradius 28.4959
lwrist -10.7171
lhand -16.5438 18.4139
lfingers 7.12502
lthumb 9.67547 48.1717
rfemur -13.8369 3.74102 25.1943
rtibia 16.3762
rfoot 0.578371 -3.22947
rtoes 12.3291
lfemur -6.04884 0.0640547 -18.999
ltibia 57.5624
lfoot 16.0726 -5.72454
ltoes -1.65329
487
root 10.3664 17.6088 28.9136 -1.95398 35.6094 -1.96433
lowerback 7.3343 -1.10945 0.726854
upperback 0.551437 -1.24191 3.98623
thorax -3.47126 -0.589277 3.85399
lowerneck -17.1516 -2.66739 -9.17917
upperneck 23.2726 -1.77166 2.86684
head 10.4223 -1.2544 2.31664
rclavicle 1.44616e-014 -4.53229e-014
rhumerus -36.3896 -16.8407 -73.7409
rradius 26.1007
rwrist 8.41816
rhand -12.5579 13.8801
rfingers 7.12502
rthumb 13.5194 -15.6611
lclavicle 1.44616e-014 -4.53229e-014
lhumerus -31.4518 11.7036 83.5304
lradius 28.5645
lwrist -10.4226
lhand -16.8672 19.263
lfingers 7.12502
lthumb 9.36347 49.035
rfemur -12.8804 3.68541 25.5951
rtibia 15.9191
rfoot 0.486004 -3.08646
rtoes 12.0244
lfemur -7.34327 0.38736 -18.576
ltibia 59.5672
lfoot 16.8833 -5.91448
ltoes 2.40961
488
root 10.4347 17.6294 29.0363 -1.89161 35.643 -1.70871
lowerback 7.54727 -1.0581 0.517742
upperback 0.464912 -1.18816 3.85912
thorax -3.68193 -0.55848 3.84187
lowerneck -16.8628 -2.60217 -8.99246
upperneck 23.1866 -1.77022 2.8947
head 10.3323 -1.23305 2.29601
rclavicle -2.25621e-014 -1.27222e-014
rhumerus -36.6622 -16.4289 -73.9666
rradius 26.573
rwrist 8.24481
rhand -12.8052 13.7901
rfingers 7.12502
rthumb 13.2809 -15.7667
lclavicle -2.25621e-014 -1.27222e-014
lhumerus -31.9153 10.9716 83.8557
lradius 28.7054
lwrist -9.7756
lhand -16.5187 21.0777
lfingers 7.12502
lthumb 9.6997 50.8343
rfemur -12.1976 3.70145 25.4732
rtibia 15.8326
rfoot 0.212358 -3.15196
rtoes 12.4688
lfemur -8.63473 0.574979 -18.6692
ltibia 61.3378
lfoot 15.2142 -6.04488
ltoes -0.650903
489
root 10.499 17.6338 29.16 -1.74456 35.6093 -1.40046
lowerback 7.62959 -0.956325 0.272259
upperback 0.498514 -1.08004 3.70985
thorax -3.69792 -0.502647 3.8147
lowerneck -16.5443 -2.64479 -8.63315
upperneck 22.7984 -1.90555 2.663
head 10.1332 -1.28557 2.13155
rclavicle -5.46658e-016 -2.06736e-014
rhumerus -36.5575 -16.5453 -74.0917
rradius 26.8895
rwrist 8.30553
rhand -12.957 13.8721
rfingers 7.12502
rthumb 13.1346 -15.6942
lclavicle -5.46658e-016 -2.06736e-014
lhumerus -32.0496 10.8461 83.983
lradius 28.5586
lwrist -9.91297
lhand -16.3064 22.317
lfingers 7.12502
lthumb 9.90458 52.064
rfemur -11.6317 3.82221 25.3406
rtibia 15.8401
rfoot 0.0152441 -3.08064
rtoes 11.8109
lfemur -9.90277 0.75072 -18.8377
ltibia 62.9637
lfoot 13.8767 -5.90404
ltoes -2.17627
490
root 10.5603 17.6383 29.2753 -1.69104 35.4654 -1.29912
lowerback 7.84837 -0.805422 0.209432
upperback 0.425771 -0.882829 3.59335
thorax -3.90945 -0.402336 3.7141
lowerneck -15.4306 -2.61519 -7.61087
upperneck 21.6788 -2.02772 1.77421
head 9.51059 -1.34264 1.6305
rclavicle 6.87298e-014 -3.4191e-014
rhumerus -35.9937 -16.7179 -74.1403
rradius 26.5786
rwrist 8.67931
rhand -13.0107 13.8188
rfingers 7.12502
rthumb 13.0829 -15.7508
lclavicle 6.87298e-014 -3.4191e-014
lhumerus -32.3674 10.823 83.9712
lradius 28.3316
lwrist -10.1493
lhand -16.4171 22.3143
lfingers 7.12502
lthumb 9.79774 52.0663
rfemur -11.1154 4.03443 25.4042
rtibia 15.8377
rfoot -0.256599 -3.0196
rtoes 11.7508
lfemur -11.2924 1.10361 -18.8271
ltibia 64.5146
lfoot 12.5495 -5.88058
ltoes -4.58832
491
root 10.6218 17.6475 29.3873 -1.8518 35.2968 -1.45679
lowerback 8.14116 -0.632089 0.340443
upperback 0.379402 -0.631887 3.57619
thorax -4.13924 -0.277601 3.60118
lowerneck -16.0958 -2.87727 -8.62948
upperneck 22.7093 -2.3277 2.87032
head 10.0445 -1.45567 2.14866
rclavicle -6.55989e-015 -1.82882e-014
rhumerus -35.9207 -16.8443 -74.1141
rradius 26.8395
rwrist 8.96003
rhand -12.871 13.551
rfingers 7.12502
rthumb 13.2176 -16.01
lclavicle -6.55989e-015 -1.82882e-014
lhumerus -32.5364 10.5419 84.2129
lradius 28.1478
lwrist -10.0634
lhand -16.6496 20.7572
lfingers 7.12502
lthumb 9.57341 50.5197
rfemur -10.5377 4.37937 25.6747
rtibia 15.8246
rfoot -0.619101 -3.3123
rtoes 13.8064
lfemur -12.5425 1.32956 -18.5661
ltibia 65.891
lfoot 11.5136 -5.0443
ltoes -4.43572
492
root 10.685 17.6526 29.5062 -2.34093 35.2009 -2.10692
lowerback 8.2714 -0.516109 0.879874
upperback 0.428597 -0.417135 3.69447
thorax -4.17725 -0.179004 3.39643
lowerneck -16.4343 -3.12786 -9.56628
upperneck 23.3135 -2.60737 3.73131
head 10.3724 -1.57294 2.57906
rclavicle 4.80065e-014 -2.3059e-014
rhumerus -36.992 -17.1017 -74.0432
rradius 28.2934
rwrist 9.00405
rhand -13.1389 13.6461
rfingers 7.12502
rthumb 12.9593 -15.9314
lclavicle 4.80065e-014 -2.3059e-014
lhumerus -32.6736 10.4693 84.4319
lradius 28.0509
lwrist -10.3663
lhand -16.8154 17.4911
lfingers 7.12502
lthumb 9.41344 47.2609
rfemur -9.91296 4.78767 26.4158
rtibia 15.7498
rfoot -0.835117 -3.98002
rtoes 15.5289
lfemur -13.6852 1.55165 -17.7687
ltibia 67.0697
lfoot 11.3344 -3.97191
ltoes -1.10593
